<svg id="visual" viewBox="0 0 900 600" width="900" height="600" xmlns="http://www.w3.org/2000/svg" xmlns:xlink="http://www.w3.org/1999/xlink" version="1.1"><rect x="0" y="0" width="900" height="600" fill="#002233"></rect><path d="M0 425L21.5 422.5C43 420 86 415 128.8 427C171.7 439 214.3 468 257.2 467.8C300 467.7 343 438.3 385.8 436.7C428.7 435 471.3 461 514.2 467.7C557 474.3 600 461.7 642.8 461.3C685.7 461 728.3 473 771.2 471.7C814 470.3 857 455.7 878.5 448.3L900 441L900 601L878.5 601C857 601 814 601 771.2 601C728.3 601 685.7 601 642.8 601C600 601 557 601 514.2 601C471.3 601 428.7 601 385.8 601C343 601 300 601 257.2 601C214.3 601 171.7 601 128.8 601C86 601 43 601 21.5 601L0 601Z" fill="#0066FF" stroke-linecap="round" stroke-linejoin="miter"></path></svg>